# 3ds Max Wavefront OBJ Exporter v0.97b - (c)2007 guruware
# File Created: 23.02.2016 03:06:26

#
# object Plane001
#

v  -16.4100 20.0000 -22.9094
v  -16.4100 -20.0000 -22.9094
v  -16.2394 -20.0000 37.0903
v  -16.2394 20.0000 37.0903
v  -93.6790 0.2641 7.0196
v  -93.7142 -0.2896 7.0475
v  -93.6774 -0.2640 7.6012
v  -93.6422 0.2896 7.5733
v  59.2118 -9.9055 -2.1198
v  59.1750 -9.9310 -2.6734
v  59.1767 -10.4591 -2.0919
v  59.1399 -10.4847 -2.6455
v  -93.6785 0.3725 7.1856
v  -93.7551 -0.1224 6.9452
v  -93.6778 -0.3724 7.4352
v  -93.6013 0.1225 7.6756
v  47.6319 -8.7166 -19.1077
v  47.5546 -8.4666 -19.5977
v  47.5554 -9.2114 -19.3481
v  47.4781 -8.9614 -19.8381
v  -93.6774 0.2732 7.5926
v  -93.7130 0.2812 7.0383
v  -93.6790 -0.2732 7.0282
v  -93.6433 -0.2811 7.5825
v  81.6625 10.6863 -3.5343
v  81.6284 11.2406 -3.5242
v  81.6268 10.6942 -4.0886
v  81.5928 11.2485 -4.0785
v  59.2665 25.0138 -53.1040
v  8.4743 -34.2024 -32.5286
v  108.5227 7.1795 37.0726
v  55.2077 -4.7339 -20.4933
v  54.4229 -4.5039 -23.0684
v  52.5423 -3.0668 -24.3715
v  52.5621 -1.8196 -17.4222
v  50.6674 -1.2644 -23.6391
v  49.8966 -0.1525 -21.3004
v  50.6814 -0.3825 -18.7253
v  54.4369 -3.6220 -18.1545
v  46.7912 -8.9144 -19.7190
v  64.3351 8.3270 -23.1911
v  64.0134 8.4048 -24.2545
v  63.2423 8.9920 -24.8030
v  63.2504 9.5572 -21.9482
v  62.4736 9.7448 -24.5154
v  62.1576 10.2222 -23.5601
v  62.4794 10.1445 -22.4967
v  64.0191 8.8044 -22.2358
v  50.9168 -6.0776 -21.3501
v  50.1458 -5.4903 -21.8986
v  51.2386 -6.1553 -20.2867
v  50.9226 -5.6779 -19.3314
v  50.1539 -4.9251 -19.0438
v  49.3828 -4.3379 -19.5924
v  49.0611 -4.2601 -20.6557
v  49.3771 -4.7375 -21.6110
v  65.4637 9.7544 -24.7351
v  65.1450 8.7480 -24.3802
v  64.3752 8.3711 -23.6691
v  64.3747 11.2740 -23.8751
v  63.6053 8.8444 -23.0183
v  63.2862 9.8907 -22.8091
v  63.6049 10.8971 -23.1640
v  65.1446 10.8007 -24.5259
v  78.2422 9.7963 -9.6473
v  77.4724 9.4193 -8.9362
v  78.5609 10.8026 -10.0022
v  78.2418 11.8489 -9.7930
v  77.4719 12.3222 -9.1422
v  76.7021 11.9453 -8.4311
v  76.3834 10.9389 -8.0762
v  76.7025 9.8926 -8.2854
v  79.3897 11.2587 -11.6818
v  78.6463 8.7636 -10.9592
v  76.8515 7.7325 -9.2226
v  76.8515 14.7928 -9.2339
v  75.0567 8.7692 -7.4894
v  74.3133 11.2665 -6.7748
v  75.0567 13.7616 -7.4974
v  78.6462 13.7560 -10.9672
v  82.9285 11.2727 -2.9416
v  65.3292 10.7378 -24.1789
v  65.5368 10.2522 -23.1983
v  65.0659 9.4319 -22.6105
v  63.6913 9.9295 -25.1269
v  64.1924 8.7573 -22.7597
v  63.4280 8.6236 -23.5585
v  63.2204 9.1092 -24.5391
v  64.5648 10.6041 -24.9777
v  53.8559 23.3912 -14.2196
v  53.3850 22.5708 -13.6317
v  53.6484 23.8767 -15.2001
v  52.8840 23.7431 -15.9989
v  52.0105 23.0685 -16.1481
v  51.5396 22.2481 -15.5603
v  51.7471 21.7625 -14.5797
v  52.5115 21.8962 -13.7809
v  57.7974 22.8389 -17.3130
v  58.3009 21.6608 -14.9342
v  57.1585 19.6706 -13.5080
v  53.8238 20.8780 -19.6130
v  55.0393 18.0340 -13.8699
v  53.1849 17.7098 -15.8080
v  52.6814 18.8878 -18.1868
v  55.9429 22.5146 -19.2510
v  50.3173 26.0939 -12.5835
v  -93.6778 0.3729 7.4340
v  -93.7558 0.1212 6.9449
v  -93.6785 -0.3728 7.1869
v  -93.6005 -0.1211 7.6759
v  64.0718 9.7467 -22.5513
v  63.9945 10.2407 -22.7932
v  63.9938 9.4950 -23.0403
v  63.9165 9.9890 -23.2822
v  -98.7662 -7.4579 17.3789
v  -115.2098 -7.4579 17.4208
v  -115.2566 -7.4579 -0.9298
v  -98.8130 -7.4579 -0.9717
v  -98.7662 6.8860 17.3789
v  -98.8130 6.8860 -0.9717
v  -115.2566 6.8860 -0.9298
v  -115.2098 6.8860 17.4208
v  -101.5624 4.9767 8.2167
v  -101.5722 3.3757 4.3515
v  -101.5763 -0.4895 2.7505
v  -101.5484 -0.4895 13.6830
v  -101.5722 -4.3548 4.3515
v  -101.5624 -5.9558 8.2167
v  -101.5525 -4.3548 12.0820
v  -101.5525 3.3757 12.0820
v  -91.9035 3.3757 4.3268
v  -91.9076 -0.4895 2.7258
v  -91.8937 4.9767 8.1921
v  -91.8838 3.3757 12.0573
v  -91.8797 -0.4896 13.6583
v  -91.8838 -4.3548 12.0573
v  -91.8937 -5.9558 8.1921
v  -91.9035 -4.3548 4.3268
v  -16.3100 20.0000 -22.9564
v  -16.1393 20.0000 37.0433
v  -16.1394 -20.0000 37.0433
v  -16.3100 -20.0000 -22.9564
v  59.5604 25.0138 -53.2421
v  108.8165 7.1795 36.9346
v  8.7682 -34.2024 -32.6667
# 145 vertices

vn -1.0000 0.0000 0.0028
vn -0.9958 0.0664 0.0631
vn 0.0916 0.7373 0.6693
vn -0.0021 0.6723 -0.7403
vn 0.0021 -0.6723 0.7403
vn -0.0916 -0.7373 -0.6693
vn 0.9958 -0.0664 -0.0631
vn -0.9806 0.0614 0.1860
vn 0.1958 0.3117 0.9298
vn -0.0009 0.9482 -0.3177
vn 0.0009 -0.9482 0.3177
vn -0.1958 -0.3117 -0.9298
vn 0.9806 -0.0614 -0.1860
vn -0.9961 -0.0623 0.0632
vn 0.0887 -0.7157 0.6927
vn 0.0020 0.6956 0.7185
vn -0.0020 -0.6956 -0.7184
vn -0.0887 0.7157 -0.6927
vn 0.9961 0.0623 -0.0632
vn -0.5917 0.6656 0.4548
vn 0.6589 0.7401 -0.1347
vn 0.0370 -0.6442 -0.7639
vn -0.5024 -0.1789 -0.8459
vn -0.2493 -0.4409 -0.8623
vn 0.2447 -0.8184 -0.5200
vn 0.4199 -0.8837 -0.2069
vn 0.4509 -0.8788 0.1564
vn 0.4219 -0.7570 0.4989
vn 0.2484 -0.5867 0.7708
vn 0.0419 -0.3384 0.9401
vn -0.2441 -0.1133 0.9631
vn -0.4976 0.1269 0.8581
vn -0.7381 0.2642 0.6208
vn -0.8804 0.3664 0.3010
vn -0.9442 0.3246 -0.0556
vn -0.8824 0.2397 -0.4048
vn -0.7417 0.0326 -0.6699
vn 0.0000 1.0000 -0.0000
vn 0.6634 0.7336 -0.1471
vn 0.5271 -0.5978 -0.6040
vn -0.0028 -0.1942 -0.9810
vn 0.7482 -0.6512 0.1268
vn 0.5311 -0.3232 0.7833
vn 0.0028 0.1942 0.9810
vn -0.5271 0.5978 0.6040
vn -0.7482 0.6512 -0.1268
vn -0.5311 0.3232 -0.7833
vn -0.6634 -0.7336 0.1471
vn -0.6635 -0.0531 -0.7463
vn 0.5292 -0.7384 -0.4179
vn 0.0002 -0.9975 0.0708
vn 0.7482 -0.0468 -0.6618
vn 0.5289 0.6722 -0.5180
vn -0.0002 0.9975 -0.0708
vn -0.5292 0.7384 0.4179
vn -0.7482 0.0468 0.6618
vn -0.5289 -0.6722 0.5180
vn 0.6635 0.0531 0.7463
vn -0.6950 -0.0012 -0.7190
vn 0.5007 -0.8656 0.0035
vn -0.0149 -0.8648 0.5019
vn 0.2602 -0.9268 0.2707
vn 0.7316 -0.6560 -0.1855
vn 0.8653 -0.3591 -0.3498
vn 0.9269 -0.0006 -0.3753
vn 0.8653 0.3580 -0.3509
vn 0.7316 0.6554 -0.1876
vn 0.5007 0.8656 0.0007
vn 0.2602 0.9277 0.2677
vn -0.0149 0.8664 0.4991
vn -0.2112 0.6568 0.7238
vn -0.3795 0.3599 0.8523
vn -0.4065 0.0015 0.9136
vn -0.3795 -0.3572 0.8535
vn -0.2112 -0.6545 0.7259
vn 0.5917 -0.6656 -0.4548
vn 0.7959 0.3928 0.4607
vn 0.4723 -0.1710 0.8647
vn 0.6533 0.7265 -0.2132
vn 0.1280 0.6346 -0.7622
vn -0.4723 0.1710 -0.8647
vn -0.7959 -0.3928 -0.4607
vn -0.6533 -0.7265 0.2132
vn -0.1280 -0.6346 0.7622
vn 0.4363 0.3451 0.8310
vn -0.0322 -0.1759 0.9839
vn 0.2164 0.0906 0.9721
vn 0.5165 0.6134 0.5975
vn 0.5281 0.8001 0.2845
vn 0.3843 0.9228 -0.0274
vn 0.1894 0.9228 -0.3356
vn -0.1029 0.8376 -0.5365
vn -0.3814 0.6411 -0.6660
vn -0.6595 0.4077 -0.6315
vn -0.8499 0.1202 -0.5131
vn -0.9596 -0.1150 -0.2569
vn -0.9417 -0.3349 0.0334
vn -0.8273 -0.4245 0.3679
vn -0.6030 -0.4576 0.6535
vn -0.3402 -0.3393 0.8770
vn -0.9803 -0.0613 0.1879
vn 0.1977 -0.3085 0.9305
vn 0.0009 0.9492 0.3145
vn -0.0009 -0.9492 -0.3146
vn -0.1977 0.3085 -0.9305
vn 0.9803 0.0613 -0.1879
vn -0.0000 -1.0000 -0.0000
vn 0.0000 1.0000 0.0000
vn 1.0000 -0.0000 -0.0025
vn 1.0000 0.0000 -0.0025
vn -0.0025 0.0000 -1.0000
vn -0.0025 -0.0000 -1.0000
vn -1.0000 -0.0000 0.0025
vn 0.0025 0.0000 1.0000
vn 0.0025 -0.0000 1.0000
vn -1.0000 0.0000 0.0025
vn -1.0000 -0.0000 0.0026
vn -1.0000 0.0000 0.0026
vn -0.0018 0.7071 -0.7071
vn 0.0018 0.7071 0.7071
vn 0.0018 -0.7071 0.7071
vn -0.0018 -0.7071 -0.7071
vn 1.0000 -0.0000 -0.0026
vn 1.0000 0.0000 -0.0026
vn 1.0000 -0.0000 -0.0028
# 125 vertex normals

vt 0.9829 0.8942 0.0000
vt 0.0253 0.8942 0.0000
vt 0.0253 0.0338 0.0000
vt 0.9829 0.0338 0.0000
vt 0.8735 0.9362 1.0000
vt 0.9182 0.9362 1.0000
vt 0.9033 0.9362 1.0000
vt 0.8884 0.9362 1.0000
vt 0.8884 0.9588 1.0000
vt 0.8735 0.9588 1.0000
vt 0.9033 0.9588 1.0000
vt 0.9182 0.9588 1.0000
vt 0.9331 0.9588 1.0000
vt 0.9331 0.9362 1.0000
vt 0.9480 0.9588 -1.0000
vt 0.8652 0.9259 1.0000
vt 0.9115 0.9259 1.0000
vt 0.8961 0.9259 1.0000
vt 0.8807 0.9259 1.0000
vt 0.8807 0.9733 1.0000
vt 0.8652 0.9733 1.0000
vt 0.8961 0.9733 1.0000
vt 0.9115 0.9733 1.0000
vt 0.9270 0.9733 1.0000
vt 0.9270 0.9259 1.0000
vt 0.9424 0.9733 -1.0000
vt 0.8817 0.9342 1.0000
vt 0.9095 0.9342 1.0000
vt 0.9002 0.9342 1.0000
vt 0.8909 0.9342 1.0000
vt 0.8909 0.9712 1.0000
vt 0.8817 0.9712 1.0000
vt 0.9002 0.9712 1.0000
vt 0.9095 0.9712 1.0000
vt 0.9187 0.9712 1.0000
vt 0.9187 0.9342 1.0000
vt 0.9280 0.9712 -1.0000
vt 0.6726 0.9278 0.0000
vt 0.6726 0.9788 0.0000
vt 0.6257 0.9278 0.0000
vt 0.5518 0.9198 0.4142
vt 0.5643 0.9198 1.0000
vt 0.5478 0.9198 1.0000
vt 0.4820 0.9198 -1.0000
vt 0.5121 0.9198 0.4142
vt 0.4780 0.9198 -0.4142
vt 0.4655 0.9198 -1.0000
vt 0.5177 0.9198 -0.4142
vt 0.5149 0.9835 0.0000
vt 0.4326 0.9198 1.0000
vt 0.4491 0.9198 1.0000
vt 0.4655 0.9198 1.0000
vt 0.4820 0.9198 1.0000
vt 0.4985 0.9198 1.0000
vt 0.5149 0.9198 1.0000
vt 0.5314 0.9198 1.0000
vt 0.5643 0.9835 1.0000
vt 0.5478 0.9835 1.0000
vt 0.4491 0.9835 1.0000
vt 0.4326 0.9835 1.0000
vt 0.4655 0.9835 1.0000
vt 0.4820 0.9835 1.0000
vt 0.4985 0.9835 1.0000
vt 0.5149 0.9835 1.0000
vt 0.5314 0.9835 1.0000
vt 0.4820 0.9835 -1.0000
vt 0.4655 0.9835 -1.0000
vt 0.4780 0.9835 -0.4142
vt 0.5518 0.9835 0.4142
vt 0.5177 0.9835 -0.4142
vt 0.1508 0.9156 0.4142
vt 0.1631 0.9156 1.0000
vt 0.1469 0.9156 1.0000
vt 0.0820 0.9156 -1.0000
vt 0.1117 0.9156 0.4142
vt 0.0781 0.9156 -0.4142
vt 0.0658 0.9156 -1.0000
vt 0.1172 0.9156 -0.4142
vt 0.1631 0.9712 1.0000
vt 0.1469 0.9712 1.0000
vt 0.0496 0.9712 1.0000
vt 0.0334 0.9712 1.0000
vt 0.0334 0.9156 1.0000
vt 0.0496 0.9156 1.0000
vt 0.0658 0.9712 1.0000
vt 0.0658 0.9156 1.0000
vt 0.0820 0.9712 1.0000
vt 0.0820 0.9156 1.0000
vt 0.0983 0.9712 1.0000
vt 0.0983 0.9156 1.0000
vt 0.1145 0.9712 1.0000
vt 0.1145 0.9156 1.0000
vt 0.1307 0.9712 1.0000
vt 0.1307 0.9156 1.0000
vt 0.0820 0.9712 -1.0000
vt 0.0658 0.9712 -1.0000
vt 0.0781 0.9712 -0.4142
vt 0.1508 0.9712 0.4142
vt 0.1172 0.9712 -0.4142
vt 0.1145 0.9712 0.0000
vt 0.3571 0.9177 0.4142
vt 0.3709 0.9177 1.0000
vt 0.3526 0.9177 1.0000
vt 0.2796 0.9177 -1.0000
vt 0.3130 0.9177 0.4142
vt 0.2751 0.9177 -0.4142
vt 0.2613 0.9177 -1.0000
vt 0.3192 0.9177 -0.4142
vt 0.3709 0.9794 1.0000
vt 0.3526 0.9794 1.0000
vt 0.2431 0.9794 1.0000
vt 0.2248 0.9794 1.0000
vt 0.2248 0.9177 1.0000
vt 0.2431 0.9177 1.0000
vt 0.2613 0.9794 1.0000
vt 0.2613 0.9177 1.0000
vt 0.2796 0.9794 1.0000
vt 0.2796 0.9177 1.0000
vt 0.2978 0.9794 1.0000
vt 0.2978 0.9177 1.0000
vt 0.3161 0.9794 1.0000
vt 0.3161 0.9177 1.0000
vt 0.3344 0.9794 1.0000
vt 0.3344 0.9177 1.0000
vt 0.2796 0.9794 -1.0000
vt 0.2613 0.9794 -1.0000
vt 0.2751 0.9794 -0.4142
vt 0.3571 0.9794 0.4142
vt 0.3192 0.9794 -0.4142
vt 0.2600 0.9177 0.4142
vt 0.3161 0.9794 0.0000
vt 0.9007 0.9267 1.0000
vt 0.9424 0.9267 1.0000
vt 0.9285 0.9267 1.0000
vt 0.9146 0.9267 1.0000
vt 0.9146 0.9822 1.0000
vt 0.9007 0.9822 1.0000
vt 0.9285 0.9822 1.0000
vt 0.9424 0.9822 1.0000
vt 0.9563 0.9822 1.0000
vt 0.9563 0.9267 1.0000
vt 0.9701 0.9822 -1.0000
vt 0.6811 0.9342 0.0000
vt 0.6811 0.9794 0.0000
vt 0.6193 0.9794 0.0000
vt 0.6193 0.9342 0.0000
vt 0.7635 0.9462 1.0000
vt 0.7571 0.9462 1.0000
vt 0.7694 0.9462 0.4142
vt 0.7763 0.9462 1.0000
vt 0.7954 0.9462 1.0000
vt 0.7891 0.9462 1.0000
vt 0.7827 0.9462 1.0000
vt 0.7699 0.9462 1.0000
vt 0.8082 0.9745 1.0000
vt 0.8018 0.9745 1.0000
vt 0.8018 0.9462 1.0000
vt 0.8082 0.9462 1.0000
vt 0.7635 0.9745 1.0000
vt 0.7571 0.9745 1.0000
vt 0.7699 0.9745 1.0000
vt 0.7763 0.9745 1.0000
vt 0.7827 0.9745 1.0000
vt 0.7891 0.9745 1.0000
vt 0.7954 0.9745 1.0000
vt 0.7763 0.9745 -1.0000
vt 0.7699 0.9745 -1.0000
vt 0.7747 0.9745 -0.4142
vt 0.8034 0.9745 0.4142
vt 0.7902 0.9745 -0.4142
# 170 texture coords

g Plane001

s 8
f 9/9/3 10/10/4 5/5/4 8/8/3 
f 11/11/5 9/9/3 8/8/3 7/7/5 
f 12/12/6 11/11/5 7/7/5 6/6/6 
f 10/13/4 12/12/6 6/6/6 5/14/4 
s 1
f 11/11/7 12/15/7 10/10/7 9/9/7 
f 13/16/8 14/17/8 15/18/8 16/19/8 
s 8
f 17/20/9 18/21/10 13/16/10 16/19/9 
f 19/22/11 17/20/9 16/19/9 15/18/11 
f 20/23/12 19/22/11 15/18/11 14/17/12 
f 18/24/10 20/23/12 14/17/12 13/25/10 
s 1
f 19/22/13 20/26/13 18/21/13 17/20/13 
f 21/27/14 22/28/14 23/29/14 24/30/14 
s 8
f 25/31/15 26/32/16 21/27/16 24/30/15 
f 27/33/17 25/31/15 24/30/15 23/29/17 
f 28/34/18 27/33/17 23/29/17 22/28/18 
f 26/35/16 28/34/18 22/28/18 21/36/16 
s 1
f 27/33/19 28/37/19 26/32/19 25/31/19 
f 29/38/20 30/39/20 31/40/20 
f 32/41/21 33/42/21 34/43/21 35/44/21 
f 34/43/21 36/45/21 37/46/21 35/44/21 
f 37/46/21 38/47/21 35/44/21 
f 32/41/21 35/44/21 39/48/21 
s 8
f 40/49/22 40/49/23 34/43/24 33/42/25 
f 40/49/26 40/49/22 33/50/25 32/51/27 
f 40/49/28 40/49/26 32/51/27 39/52/29 
f 40/49/30 40/49/28 39/52/29 35/53/31 
f 40/49/32 40/49/30 35/53/31 38/54/33 
f 40/49/34 40/49/32 38/54/33 37/55/35 
f 40/49/36 40/49/34 37/55/35 36/56/37 
f 40/49/23 40/49/36 36/56/37 34/43/24 
s 1
f 40/49/38 40/49/38 40/49/38 40/49/38 
f 40/49/38 40/49/38 40/49/38 40/49/38 
f 40/49/38 40/49/38 40/49/38 
f 40/49/38 40/49/38 40/49/38 
f 41/41/39 42/42/39 43/43/39 44/44/39 
f 43/43/39 45/45/39 46/46/39 44/44/39 
f 46/46/39 47/47/39 44/44/39 
f 41/41/39 44/44/39 48/48/39 
s 8
f 49/57/40 50/58/41 43/43/41 42/42/40 
f 51/59/42 49/60/40 42/50/40 41/51/42 
f 52/61/43 51/59/42 41/51/42 48/52/43 
f 53/62/44 52/61/43 48/52/43 44/53/44 
f 54/63/45 53/62/44 44/53/44 47/54/45 
f 55/64/46 54/63/45 47/54/45 46/55/46 
f 56/65/47 55/64/46 46/55/46 45/56/47 
f 50/58/41 56/65/47 45/56/47 43/43/41 
s 1
f 53/66/48 54/67/48 55/68/48 51/69/48 
f 55/68/48 56/65/48 50/58/48 51/69/48 
f 50/58/48 49/57/48 51/69/48 
f 53/66/48 51/69/48 52/70/48 
f 57/71/49 58/72/49 59/73/49 60/74/49 
f 59/73/49 61/75/49 62/76/49 60/74/49 
f 62/76/49 63/77/49 60/74/49 
f 57/71/49 60/74/49 64/78/49 
s 8
f 65/79/50 66/80/51 59/73/51 58/72/50 
f 67/81/52 65/82/50 58/83/50 57/84/52 
f 68/85/53 67/81/52 57/84/52 64/86/53 
f 69/87/54 68/85/53 64/86/53 60/88/54 
f 70/89/55 69/87/54 60/88/54 63/90/55 
f 71/91/56 70/89/55 63/90/55 62/92/56 
f 72/93/57 71/91/56 62/92/56 61/94/57 
f 66/80/51 72/93/57 61/94/57 59/73/51 
s 1
f 69/95/58 70/96/58 71/97/58 67/98/58 
f 71/97/58 72/93/58 66/80/58 67/98/58 
f 66/80/58 65/79/58 67/98/58 
f 69/95/58 67/98/58 68/99/58 
f 73/71/59 74/72/59 75/73/59 76/74/59 
f 75/73/59 77/75/59 78/76/59 76/74/59 
f 78/76/59 79/77/59 76/74/59 
f 73/71/59 76/74/59 80/78/59 
s 8
f 81/100/60 81/100/61 75/73/62 74/72/63 
f 81/100/64 81/100/60 74/83/63 73/84/65 
f 81/100/66 81/100/64 73/84/65 80/86/67 
f 81/100/68 81/100/66 80/86/67 76/88/69 
f 81/100/70 81/100/68 76/88/69 79/90/71 
f 81/100/72 81/100/70 79/90/71 78/92/73 
f 81/100/74 81/100/72 78/92/73 77/94/75 
f 81/100/61 81/100/74 77/94/75 75/73/62 
s 1
f 81/100/38 81/100/38 81/100/38 81/100/38 
f 81/100/38 81/100/38 81/100/38 81/100/38 
f 81/100/38 81/100/38 81/100/38 
f 81/100/38 81/100/38 81/100/38 
f 82/101/76 83/102/76 84/103/76 85/104/76 
f 84/103/76 86/105/76 87/106/76 85/104/76 
f 87/106/76 88/107/76 85/104/76 
f 82/101/76 85/104/76 89/108/76 
s 8
f 90/109/77 91/110/78 84/103/78 83/102/77 
f 92/111/79 90/112/77 83/113/77 82/114/79 
f 93/115/80 92/111/79 82/114/79 89/116/80 
f 94/117/81 93/115/80 89/116/80 85/118/81 
f 95/119/82 94/117/81 85/118/81 88/120/82 
f 96/121/83 95/119/82 88/120/82 87/122/83 
f 97/123/84 96/121/83 87/122/83 86/124/84 
f 91/110/78 97/123/84 86/124/84 84/103/78 
s 1
f 94/125/20 95/126/20 96/127/20 92/128/20 
f 96/127/20 97/123/20 91/110/20 92/128/20 
f 91/110/20 90/109/20 92/128/20 
f 94/125/20 92/128/20 93/129/20 
f 98/114/76 99/113/76 100/130/76 101/118/76 
f 100/130/76 102/124/76 103/122/76 101/118/76 
f 103/122/76 104/120/76 101/118/76 
f 98/114/76 101/118/76 105/116/76 
s 8
f 106/131/85 106/131/86 100/103/87 99/102/88 
f 106/131/89 106/131/85 99/113/88 98/114/90 
f 106/131/91 106/131/89 98/114/90 105/116/92 
f 106/131/93 106/131/91 105/116/92 101/118/94 
f 106/131/95 106/131/93 101/118/94 104/120/96 
f 106/131/97 106/131/95 104/120/96 103/122/98 
f 106/131/99 106/131/97 103/122/98 102/124/100 
f 106/131/86 106/131/99 102/124/100 100/103/87 
s 1
f 106/131/38 106/131/38 106/131/38 106/131/38 
f 106/131/38 106/131/38 106/131/38 106/131/38 
f 106/131/38 106/131/38 106/131/38 
f 106/131/38 106/131/38 106/131/38 
f 107/132/101 108/133/101 109/134/101 110/135/101 
s 8
f 111/136/102 112/137/103 107/132/103 110/135/102 
f 113/138/104 111/136/102 110/135/102 109/134/104 
f 114/139/105 113/138/104 109/134/104 108/133/105 
f 112/140/103 114/139/105 108/133/105 107/141/103 
s 1
f 113/138/106 114/142/106 112/137/106 111/136/106 
s 2
f 115/143/107 116/144/107 117/145/107 118/146/107 
s 4
f 119/146/108 120/143/108 121/144/108 122/145/108 
s 8
f 115/146/109 118/143/109 120/144/109 119/145/110 
s 16
f 118/146/111 117/143/112 121/144/111 120/145/111 
s 32
f 117/146/113 116/143/113 122/144/113 121/145/113 
s 64
f 116/146/114 115/143/114 119/144/114 122/145/115 
s 1
f 123/147/116 124/148/117 125/149/116 126/150/116 
f 125/149/116 127/151/118 128/152/116 126/150/116 
f 128/152/116 129/153/117 126/150/116 
f 123/147/116 126/150/116 130/154/118 
s 8
f 131/155/119 132/156/111 125/157/111 124/158/119 
f 133/159/108 131/160/119 124/148/119 123/147/38 
f 134/161/120 133/159/108 123/147/38 130/154/120 
f 135/162/115 134/161/120 130/154/120 126/150/115 
f 136/163/121 135/162/115 126/150/115 129/153/121 
f 137/164/107 136/163/121 129/153/121 128/152/107 
f 138/165/122 137/164/107 128/152/107 127/151/122 
f 132/156/111 138/165/122 127/151/122 125/157/111 
s 1
f 135/166/109 136/167/109 137/168/109 133/169/109 
f 137/168/109 138/165/123 132/156/109 133/169/109 
f 132/156/109 131/155/124 133/169/109 
f 135/166/109 133/169/109 134/170/110 
f 139/1/125 140/4/125 141/3/125 142/2/125 
f 143/38/76 144/40/76 145/39/76 
s 1
f 1/1/1 2/2/1 3/3/1 4/4/1 
f 5/5/2 6/6/2 7/7/2 8/8/2 
# 116 polygons - 30 triangles

